<svg xmlns="http://www.w3.org/2000/svg" width="2400" height="1200" viewBox="0 0 2400 1200">
  <defs>
    <linearGradient id="grad3" x1="0" y1="0" x2="1" y2="1">
      <stop offset="0%" stop-color="#0B5CAB"/>
      <stop offset="100%" stop-color="#062E59"/>
    </linearGradient>
  </defs>
  <rect width="100%" height="100%" fill="url(#grad3)"/>
  <path d="M 0 1200 L 0 780.0 L 0 780.0 L 40 794.3 L 80 807.8 L 120 819.7 L 160 829.3 L 200 836.0 L 240 839.5 L 280 839.6 L 320 836.2 L 360 829.6 L 400 820.1 L 440 808.4 L 480 794.9 L 520 780.6 L 560 766.3 L 600 752.8 L 640 740.8 L 680 731.1 L 720 724.2 L 760 720.6 L 800 720.3 L 840 723.5 L 880 730.0 L 920 739.4 L 960 751.1 L 1000 764.5 L 1040 778.7 L 1080 793.1 L 1120 806.7 L 1160 818.7 L 1200 828.5 L 1240 835.6 L 1280 839.4 L 1320 839.7 L 1360 836.7 L 1400 830.3 L 1440 821.1 L 1480 809.5 L 1520 796.1 L 1560 781.9 L 1600 767.5 L 1640 753.9 L 1680 741.8 L 1720 731.8 L 1760 724.7 L 1800 720.7 L 1840 720.2 L 1880 723.1 L 1920 729.3 L 1960 738.5 L 2000 750.0 L 2040 763.3 L 2080 777.5 L 2120 791.9 L 2160 805.5 L 2200 817.8 L 2240 827.8 L 2280 835.1 L 2320 839.2 L 2360 839.8 L 2400 837.1 L 2400 1200 Z" fill="white" fill-opacity="0.25"/><path d="M 0 1200 L 0 786.1 L 0 786.1 L 40 792.2 L 80 794.0 L 120 791.1 L 160 784.0 L 200 773.2 L 240 759.7 L 280 744.8 L 320 729.8 L 360 716.1 L 400 705.0 L 440 697.4 L 480 694.1 L 520 695.4 L 560 701.1 L 600 710.7 L 640 723.4 L 680 738.0 L 720 753.1 L 760 767.4 L 800 779.5 L 840 788.4 L 880 793.3 L 920 793.6 L 960 789.4 L 1000 781.0 L 1040 769.2 L 1080 755.2 L 1120 740.1 L 1160 725.4 L 1200 712.3 L 1240 702.2 L 1280 695.9 L 1320 694.0 L 1360 696.7 L 1400 703.7 L 1440 714.4 L 1480 727.8 L 1520 742.7 L 1560 757.7 L 1600 771.4 L 1640 782.7 L 1680 790.4 L 1720 793.8 L 1760 792.7 L 1800 787.2 L 1840 777.7 L 1880 765.1 L 1920 750.5 L 1960 735.4 L 2000 721.1 L 2040 708.8 L 2080 699.8 L 2120 694.8 L 2160 694.4 L 2200 698.4 L 2240 706.7 L 2280 718.3 L 2320 732.3 L 2360 747.4 L 2400 762.2 L 2400 1200 Z" fill="white" fill-opacity="0.35"/><path d="M 0 1200 L 0 732.4 L 0 732.4 L 40 723.7 L 80 711.1 L 120 696.4 L 160 681.7 L 200 668.9 L 240 660.0 L 280 656.1 L 320 657.8 L 360 664.9 L 400 676.4 L 440 690.6 L 480 705.5 L 520 719.2 L 560 729.5 L 600 735.2 L 640 735.4 L 680 730.0 L 720 719.9 L 760 706.4 L 800 691.4 L 840 677.1 L 880 665.5 L 920 658.1 L 960 656.1 L 1000 659.6 L 1040 668.3 L 1080 680.9 L 1120 695.6 L 1160 710.3 L 1200 723.1 L 1240 732.0 L 1280 735.9 L 1320 734.2 L 1360 727.1 L 1400 715.6 L 1440 701.4 L 1480 686.5 L 1520 672.8 L 1560 662.5 L 1600 656.8 L 1640 656.6 L 1680 662.0 L 1720 672.1 L 1760 685.6 L 1800 700.6 L 1840 714.9 L 1880 726.5 L 1920 733.9 L 1960 735.9 L 2000 732.4 L 2040 723.7 L 2080 711.1 L 2120 696.4 L 2160 681.7 L 2200 668.9 L 2240 660.0 L 2280 656.1 L 2320 657.8 L 2360 664.9 L 2400 676.4 L 2400 1200 Z" fill="white" fill-opacity="0.45"/>
</svg>