<svg xmlns="http://www.w3.org/2000/svg" width="2400" height="1200" viewBox="0 0 2400 1200">
  <defs>
    <linearGradient id="grad2" x1="0" y1="0" x2="1" y2="1">
      <stop offset="0%" stop-color="#062E59"/>
      <stop offset="100%" stop-color="#0B5CAB"/>
    </linearGradient>
  </defs>
  <rect width="100%" height="100%" fill="url(#grad2)"/>
  <g>
    <line x1="0" y1="0" x2="0" y2="1200" stroke="white" stroke-opacity="0.1" stroke-width="1"/><line x1="48" y1="0" x2="48" y2="1200" stroke="white" stroke-opacity="0.06" stroke-width="1"/><line x1="96" y1="0" x2="96" y2="1200" stroke="white" stroke-opacity="0.06" stroke-width="1"/><line x1="144" y1="0" x2="144" y2="1200" stroke="white" stroke-opacity="0.06" stroke-width="1"/><line x1="192" y1="0" x2="192" y2="1200" stroke="white" stroke-opacity="0.1" stroke-width="1"/><line x1="240" y1="0" x2="240" y2="1200" stroke="white" stroke-opacity="0.06" stroke-width="1"/><line x1="288" y1="0" x2="288" y2="1200" stroke="white" stroke-opacity="0.06" stroke-width="1"/><line x1="336" y1="0" x2="336" y2="1200" stroke="white" stroke-opacity="0.06" stroke-width="1"/><line x1="384" y1="0" x2="384" y2="1200" stroke="white" stroke-opacity="0.1" stroke-width="1"/><line x1="432" y1="0" x2="432" y2="1200" stroke="white" stroke-opacity="0.06" stroke-width="1"/><line x1="480" y1="0" x2="480" y2="1200" stroke="white" stroke-opacity="0.06" stroke-width="1"/><line x1="528" y1="0" x2="528" y2="1200" stroke="white" stroke-opacity="0.06" stroke-width="1"/><line x1="576" y1="0" x2="576" y2="1200" stroke="white" stroke-opacity="0.1" stroke-width="1"/><line x1="624" y1="0" x2="624" y2="1200" stroke="white" stroke-opacity="0.06" stroke-width="1"/><line x1="672" y1="0" x2="672" y2="1200" stroke="white" stroke-opacity="0.06" stroke-width="1"/><line x1="720" y1="0" x2="720" y2="1200" stroke="white" stroke-opacity="0.06" stroke-width="1"/><line x1="768" y1="0" x2="768" y2="1200" stroke="white" stroke-opacity="0.1" stroke-width="1"/><line x1="816" y1="0" x2="816" y2="1200" stroke="white" stroke-opacity="0.06" stroke-width="1"/><line x1="864" y1="0" x2="864" y2="1200" stroke="white" stroke-opacity="0.06" stroke-width="1"/><line x1="912" y1="0" x2="912" y2="1200" stroke="white" stroke-opacity="0.06" stroke-width="1"/><line x1="960" y1="0" x2="960" y2="1200" stroke="white" stroke-opacity="0.1" stroke-width="1"/><line x1="1008" y1="0" x2="1008" y2="1200" stroke="white" stroke-opacity="0.06" stroke-width="1"/><line x1="1056" y1="0" x2="1056" y2="1200" stroke="white" stroke-opacity="0.06" stroke-width="1"/><line x1="1104" y1="0" x2="1104" y2="1200" stroke="white" stroke-opacity="0.06" stroke-width="1"/><line x1="1152" y1="0" x2="1152" y2="1200" stroke="white" stroke-opacity="0.1" stroke-width="1"/><line x1="1200" y1="0" x2="1200" y2="1200" stroke="white" stroke-opacity="0.06" stroke-width="1"/><line x1="1248" y1="0" x2="1248" y2="1200" stroke="white" stroke-opacity="0.06" stroke-width="1"/><line x1="1296" y1="0" x2="1296" y2="1200" stroke="white" stroke-opacity="0.06" stroke-width="1"/><line x1="1344" y1="0" x2="1344" y2="1200" stroke="white" stroke-opacity="0.1" stroke-width="1"/><line x1="1392" y1="0" x2="1392" y2="1200" stroke="white" stroke-opacity="0.06" stroke-width="1"/><line x1="1440" y1="0" x2="1440" y2="1200" stroke="white" stroke-opacity="0.06" stroke-width="1"/><line x1="1488" y1="0" x2="1488" y2="1200" stroke="white" stroke-opacity="0.06" stroke-width="1"/><line x1="1536" y1="0" x2="1536" y2="1200" stroke="white" stroke-opacity="0.1" stroke-width="1"/><line x1="1584" y1="0" x2="1584" y2="1200" stroke="white" stroke-opacity="0.06" stroke-width="1"/><line x1="1632" y1="0" x2="1632" y2="1200" stroke="white" stroke-opacity="0.06" stroke-width="1"/><line x1="1680" y1="0" x2="1680" y2="1200" stroke="white" stroke-opacity="0.06" stroke-width="1"/><line x1="1728" y1="0" x2="1728" y2="1200" stroke="white" stroke-opacity="0.1" stroke-width="1"/><line x1="1776" y1="0" x2="1776" y2="1200" stroke="white" stroke-opacity="0.06" stroke-width="1"/><line x1="1824" y1="0" x2="1824" y2="1200" stroke="white" stroke-opacity="0.06" stroke-width="1"/><line x1="1872" y1="0" x2="1872" y2="1200" stroke="white" stroke-opacity="0.06" stroke-width="1"/><line x1="1920" y1="0" x2="1920" y2="1200" stroke="white" stroke-opacity="0.1" stroke-width="1"/><line x1="1968" y1="0" x2="1968" y2="1200" stroke="white" stroke-opacity="0.06" stroke-width="1"/><line x1="2016" y1="0" x2="2016" y2="1200" stroke="white" stroke-opacity="0.06" stroke-width="1"/><line x1="2064" y1="0" x2="2064" y2="1200" stroke="white" stroke-opacity="0.06" stroke-width="1"/><line x1="2112" y1="0" x2="2112" y2="1200" stroke="white" stroke-opacity="0.1" stroke-width="1"/><line x1="2160" y1="0" x2="2160" y2="1200" stroke="white" stroke-opacity="0.06" stroke-width="1"/><line x1="2208" y1="0" x2="2208" y2="1200" stroke="white" stroke-opacity="0.06" stroke-width="1"/><line x1="2256" y1="0" x2="2256" y2="1200" stroke="white" stroke-opacity="0.06" stroke-width="1"/><line x1="2304" y1="0" x2="2304" y2="1200" stroke="white" stroke-opacity="0.1" stroke-width="1"/><line x1="2352" y1="0" x2="2352" y2="1200" stroke="white" stroke-opacity="0.06" stroke-width="1"/><line x1="2400" y1="0" x2="2400" y2="1200" stroke="white" stroke-opacity="0.06" stroke-width="1"/><line x1="0" y1="0" x2="2400" y2="0" stroke="white" stroke-opacity="0.1" stroke-width="1"/><line x1="0" y1="48" x2="2400" y2="48" stroke="white" stroke-opacity="0.06" stroke-width="1"/><line x1="0" y1="96" x2="2400" y2="96" stroke="white" stroke-opacity="0.06" stroke-width="1"/><line x1="0" y1="144" x2="2400" y2="144" stroke="white" stroke-opacity="0.06" stroke-width="1"/><line x1="0" y1="192" x2="2400" y2="192" stroke="white" stroke-opacity="0.1" stroke-width="1"/><line x1="0" y1="240" x2="2400" y2="240" stroke="white" stroke-opacity="0.06" stroke-width="1"/><line x1="0" y1="288" x2="2400" y2="288" stroke="white" stroke-opacity="0.06" stroke-width="1"/><line x1="0" y1="336" x2="2400" y2="336" stroke="white" stroke-opacity="0.06" stroke-width="1"/><line x1="0" y1="384" x2="2400" y2="384" stroke="white" stroke-opacity="0.1" stroke-width="1"/><line x1="0" y1="432" x2="2400" y2="432" stroke="white" stroke-opacity="0.06" stroke-width="1"/><line x1="0" y1="480" x2="2400" y2="480" stroke="white" stroke-opacity="0.06" stroke-width="1"/><line x1="0" y1="528" x2="2400" y2="528" stroke="white" stroke-opacity="0.06" stroke-width="1"/><line x1="0" y1="576" x2="2400" y2="576" stroke="white" stroke-opacity="0.1" stroke-width="1"/><line x1="0" y1="624" x2="2400" y2="624" stroke="white" stroke-opacity="0.06" stroke-width="1"/><line x1="0" y1="672" x2="2400" y2="672" stroke="white" stroke-opacity="0.06" stroke-width="1"/><line x1="0" y1="720" x2="2400" y2="720" stroke="white" stroke-opacity="0.06" stroke-width="1"/><line x1="0" y1="768" x2="2400" y2="768" stroke="white" stroke-opacity="0.1" stroke-width="1"/><line x1="0" y1="816" x2="2400" y2="816" stroke="white" stroke-opacity="0.06" stroke-width="1"/><line x1="0" y1="864" x2="2400" y2="864" stroke="white" stroke-opacity="0.06" stroke-width="1"/><line x1="0" y1="912" x2="2400" y2="912" stroke="white" stroke-opacity="0.06" stroke-width="1"/><line x1="0" y1="960" x2="2400" y2="960" stroke="white" stroke-opacity="0.1" stroke-width="1"/><line x1="0" y1="1008" x2="2400" y2="1008" stroke="white" stroke-opacity="0.06" stroke-width="1"/><line x1="0" y1="1056" x2="2400" y2="1056" stroke="white" stroke-opacity="0.06" stroke-width="1"/><line x1="0" y1="1104" x2="2400" y2="1104" stroke="white" stroke-opacity="0.06" stroke-width="1"/><line x1="0" y1="1152" x2="2400" y2="1152" stroke="white" stroke-opacity="0.1" stroke-width="1"/><line x1="0" y1="1200" x2="2400" y2="1200" stroke="white" stroke-opacity="0.06" stroke-width="1"/>
  </g>
  
      <path d="M 100 900.0
               C 600.0 660.0, 840.0 1140.0, 1200.0 780.0
               S 1920.0 360.0, 2300 540.0"
            fill="none" stroke="white" stroke-opacity="0.45" stroke-width="3" stroke-dasharray="6 10"/>
    
  <circle cx="100.0" cy="900.0" r="5" fill="#36D399" fill-opacity="0.9"/>
<circle cx="600.0" cy="660.0" r="5" fill="#36D399" fill-opacity="0.9"/>
<circle cx="1200.0" cy="780.0" r="5" fill="#36D399" fill-opacity="0.9"/>
<circle cx="1920.0" cy="360.0" r="5" fill="#36D399" fill-opacity="0.9"/>
<circle cx="2300.0" cy="540.0" r="5" fill="#36D399" fill-opacity="0.9"/>
</svg>
