<svg xmlns="http://www.w3.org/2000/svg" width="2400" height="1200" viewBox="0 0 2400 1200">
  <rect width="100%" height="100%" fill="#2A2A2A"/>
  <g opacity="0.9"><polygon points="2491.7,1106.7 2313.2,1400.2 1992.5,1285.3 1958.3,991.5 2322.3,902.5" fill="#FAF9F7" fill-opacity="0.4" /><polygon points="2480.5,605.0 2454.6,698.6 2321.8,730.6 2219.4,658.4 2226.4,541.1 2321.2,468.6 2436.1,504.0" fill="#EEF2F7" fill-opacity="0.32" /><polygon points="476.1,587.8 397.5,773.1 143.4,832.4 -32.8,682.3 -31.7,482.6 145.8,284.6 359.7,353.5" fill="#E6EDF5" fill-opacity="0.28" /><polygon points="472.2,1082.6 403.3,1279.4 127.6,1287.9 33.2,1094.5 166.4,868.6 382.3,914.9" fill="#FAF9F7" fill-opacity="0.4" /><polygon points="2526.6,52.0 2418.2,237.0 2190.7,162.9 2191.7,-67.0 2377.6,-103.9" fill="#EEF2F7" fill-opacity="0.32" /><polygon points="2014.2,587.7 1953.4,727.0 1839.4,695.5 1770.3,587.9 1820.0,461.4 1950.5,471.5" fill="#E6EDF5" fill-opacity="0.28" /><polygon points="2372.7,549.5 2247.3,697.9 2050.0,708.5 1986.6,527.8 2061.9,378.3 2269.2,373.2" fill="#FAF9F7" fill-opacity="0.4" /><polygon points="1485.9,977.4 1403.4,1109.4 1297.8,1144.1 1182.9,1064.5 1166.7,934.9 1301.6,833.2 1417.6,895.1" fill="#EEF2F7" fill-opacity="0.32" /><polygon points="1086.5,52.7 972.6,249.3 749.5,316.6 539.8,194.7 524.6,-108.1 746.3,-270.9 990.1,-192.6" fill="#E6EDF5" fill-opacity="0.28" /><polygon points="2404.3,96.4 2299.4,344.5 2006.9,339.3 1889.3,84.1 2051.3,-132.9 2285.2,-188.1" fill="#FAF9F7" fill-opacity="0.4" /><polygon points="1856.9,893.6 1784.4,1105.4 1515.3,1181.8 1358.8,1054.2 1327.9,804.3 1528.0,598.4 1786.0,648.2" fill="#EEF2F7" fill-opacity="0.32" /><polygon points="807.9,1174.4 687.4,1408.3 377.7,1327.0 386.9,1051.6 672.2,959.4" fill="#E6EDF5" fill-opacity="0.28" /></g>
  <g><line x1="2366.6" y1="749.6" x2="2453.0" y2="795.9" stroke="#4A90E2" stroke-opacity="0.14" stroke-width="2"/><line x1="98.4" y1="144.3" x2="206.5" y2="358.1" stroke="#4A90E2" stroke-opacity="0.14" stroke-width="2"/><line x1="326.6" y1="819.6" x2="516.8" y2="729.2" stroke="#4A90E2" stroke-opacity="0.14" stroke-width="2"/><line x1="2152.0" y1="354.0" x2="2281.7" y2="154.9" stroke="#4A90E2" stroke-opacity="0.14" stroke-width="2"/><line x1="103.4" y1="911.8" x2="-71.6" y2="704.7" stroke="#4A90E2" stroke-opacity="0.14" stroke-width="2"/><line x1="841.3" y1="192.0" x2="715.5" y2="397.5" stroke="#4A90E2" stroke-opacity="0.14" stroke-width="2"/><line x1="2380.9" y1="909.0" x2="2258.8" y2="947.3" stroke="#4A90E2" stroke-opacity="0.14" stroke-width="2"/><line x1="2253.0" y1="796.1" x2="2267.0" y2="672.6" stroke="#4A90E2" stroke-opacity="0.14" stroke-width="2"/><line x1="1346.2" y1="889.6" x2="1327.0" y2="959.9" stroke="#4A90E2" stroke-opacity="0.14" stroke-width="2"/><line x1="2293.6" y1="765.9" x2="2230.5" y2="977.9" stroke="#4A90E2" stroke-opacity="0.14" stroke-width="2"/><line x1="744.9" y1="1106.6" x2="741.2" y2="1040.7" stroke="#4A90E2" stroke-opacity="0.14" stroke-width="2"/><line x1="504.8" y1="780.9" x2="356.0" y2="699.9" stroke="#4A90E2" stroke-opacity="0.14" stroke-width="2"/><line x1="1014.5" y1="48.8" x2="1118.3" y2="36.7" stroke="#4A90E2" stroke-opacity="0.14" stroke-width="2"/><line x1="384.7" y1="1117.3" x2="326.0" y2="1317.5" stroke="#4A90E2" stroke-opacity="0.14" stroke-width="2"/><line x1="84.2" y1="355.5" x2="224.3" y2="311.0" stroke="#4A90E2" stroke-opacity="0.14" stroke-width="2"/><line x1="881.6" y1="597.9" x2="668.8" y2="773.2" stroke="#4A90E2" stroke-opacity="0.14" stroke-width="2"/><line x1="1515.1" y1="976.6" x2="1375.1" y2="950.2" stroke="#4A90E2" stroke-opacity="0.14" stroke-width="2"/><line x1="456.6" y1="927.8" x2="668.3" y2="908.7" stroke="#4A90E2" stroke-opacity="0.14" stroke-width="2"/></g>
</svg>