<svg xmlns="http://www.w3.org/2000/svg" width="2400" height="600" viewBox="0 0 2400 600">
  <defs>
    <linearGradient id="bg" x1="0" y1="0" x2="1" y2="1">
      <stop offset="0%" stop-color="#2A2A2A"/>
      <stop offset="70%" stop-color="#4A90E2"/>
      <stop offset="100%" stop-color="#FAF9F7"/>
    </linearGradient>
  </defs>
  <rect width="100%" height="100%" fill="url(#bg)"/>
  <g><circle cx="1085.7" cy="335.9" r="15.2" fill="#FFFFFF" fill-opacity="0.09656500700997733"/><circle cx="1409.7" cy="110.8" r="11.1" fill="#FFFFFF" fill-opacity="0.11298827202168019"/><circle cx="225.9" cy="182.0" r="6.9" fill="#FFFFFF" fill-opacity="0.13096445343671775"/><circle cx="100.5" cy="589.3" r="15.6" fill="#FFFFFF" fill-opacity="0.11539225335338404"/><circle cx="378.0" cy="9.0" r="11.3" fill="#4A90E2" fill-opacity="0.0559551105168855"/><circle cx="580.7" cy="18.0" r="10.6" fill="#FFFFFF" fill-opacity="0.09405311166566568"/><circle cx="1245.9" cy="384.2" r="11.0" fill="#4A90E2" fill-opacity="0.11624495318903681"/><circle cx="667.6" cy="598.6" r="16.0" fill="#FFFFFF" fill-opacity="0.1340215549492862"/><circle cx="756.7" cy="137.8" r="8.9" fill="#FFFFFF" fill-opacity="0.05702234995599259"/><circle cx="961.0" cy="508.0" r="9.9" fill="#FFFFFF" fill-opacity="0.14580423833198136"/><circle cx="1.3" cy="125.8" r="15.1" fill="#FFFFFF" fill-opacity="0.09699872760136663"/><circle cx="953.8" cy="43.8" r="12.3" fill="#4A90E2" fill-opacity="0.12785108586766508"/><circle cx="209.1" cy="199.6" r="15.6" fill="#4A90E2" fill-opacity="0.12580405169937586"/><circle cx="591.3" cy="60.6" r="6.6" fill="#4A90E2" fill-opacity="0.1297021511843974"/><circle cx="1342.3" cy="268.5" r="7.9" fill="#4A90E2" fill-opacity="0.12318942157143503"/><circle cx="1544.9" cy="69.9" r="10.2" fill="#4A90E2" fill-opacity="0.07128656730090895"/><circle cx="2330.2" cy="482.0" r="9.0" fill="#4A90E2" fill-opacity="0.13848651127489708"/><circle cx="946.3" cy="512.6" r="12.4" fill="#FFFFFF" fill-opacity="0.0600332752183883"/><circle cx="511.8" cy="155.0" r="13.7" fill="#4A90E2" fill-opacity="0.082895542554773"/><circle cx="176.2" cy="54.1" r="11.8" fill="#FFFFFF" fill-opacity="0.07430129201375624"/><circle cx="892.1" cy="271.9" r="15.6" fill="#FFFFFF" fill-opacity="0.0983724533262545"/><circle cx="2079.7" cy="109.7" r="7.5" fill="#FFFFFF" fill-opacity="0.1408423730942483"/><circle cx="598.8" cy="113.9" r="13.4" fill="#4A90E2" fill-opacity="0.14404048960948823"/><circle cx="2280.3" cy="529.3" r="12.0" fill="#4A90E2" fill-opacity="0.09214572239473579"/><circle cx="92.9" cy="577.6" r="8.4" fill="#4A90E2" fill-opacity="0.12045794605583769"/><circle cx="1976.9" cy="357.9" r="8.9" fill="#FFFFFF" fill-opacity="0.06754333967658592"/><circle cx="165.1" cy="137.0" r="11.6" fill="#FFFFFF" fill-opacity="0.13523998753418814"/><circle cx="672.5" cy="550.4" r="8.0" fill="#4A90E2" fill-opacity="0.05165747930791551"/><circle cx="1069.7" cy="36.3" r="7.8" fill="#FFFFFF" fill-opacity="0.08687853703722627"/><circle cx="315.8" cy="217.3" r="14.9" fill="#FFFFFF" fill-opacity="0.14804934213382373"/><circle cx="1658.9" cy="350.7" r="7.4" fill="#4A90E2" fill-opacity="0.05350805366306556"/><circle cx="2184.5" cy="420.6" r="15.6" fill="#FFFFFF" fill-opacity="0.05212591782091014"/><circle cx="1157.4" cy="438.3" r="9.2" fill="#4A90E2" fill-opacity="0.14993576263817554"/><circle cx="1310.6" cy="442.2" r="15.0" fill="#FFFFFF" fill-opacity="0.12370881344165599"/><circle cx="1903.8" cy="549.0" r="9.5" fill="#FFFFFF" fill-opacity="0.11851459553336981"/><circle cx="2090.6" cy="250.3" r="13.9" fill="#FFFFFF" fill-opacity="0.13634726740414327"/><circle cx="1499.9" cy="229.4" r="11.8" fill="#4A90E2" fill-opacity="0.11088669007439098"/><circle cx="1534.6" cy="596.0" r="14.8" fill="#4A90E2" fill-opacity="0.12282070765655478"/><circle cx="1764.1" cy="348.6" r="10.4" fill="#4A90E2" fill-opacity="0.13383700291905687"/><circle cx="1800.5" cy="17.9" r="12.0" fill="#4A90E2" fill-opacity="0.0980956815349241"/><circle cx="1676.0" cy="298.4" r="12.1" fill="#4A90E2" fill-opacity="0.14204642734400724"/><circle cx="27.1" cy="180.6" r="12.8" fill="#4A90E2" fill-opacity="0.07025744134068088"/><circle cx="2173.7" cy="396.0" r="10.4" fill="#4A90E2" fill-opacity="0.13917269203177368"/><circle cx="1598.2" cy="119.1" r="10.3" fill="#FFFFFF" fill-opacity="0.1305988399346394"/><circle cx="2112.6" cy="230.7" r="11.8" fill="#4A90E2" fill-opacity="0.08164868444941382"/><circle cx="1191.5" cy="502.3" r="14.5" fill="#FFFFFF" fill-opacity="0.12112177615176067"/><circle cx="664.3" cy="101.5" r="10.5" fill="#4A90E2" fill-opacity="0.07751628229449084"/><circle cx="993.6" cy="375.4" r="10.9" fill="#FFFFFF" fill-opacity="0.08153716453632456"/><circle cx="2356.9" cy="271.5" r="6.7" fill="#FFFFFF" fill-opacity="0.053148577569517276"/><circle cx="99.6" cy="425.2" r="11.7" fill="#FFFFFF" fill-opacity="0.08090303514099595"/><circle cx="45.9" cy="81.5" r="10.5" fill="#FFFFFF" fill-opacity="0.05247265083284164"/><circle cx="569.8" cy="84.5" r="6.5" fill="#4A90E2" fill-opacity="0.11291803055651846"/><circle cx="1511.9" cy="393.0" r="14.1" fill="#FFFFFF" fill-opacity="0.14584606519190102"/><circle cx="478.4" cy="285.1" r="7.8" fill="#4A90E2" fill-opacity="0.05107666682828289"/><circle cx="1714.0" cy="107.5" r="8.7" fill="#FFFFFF" fill-opacity="0.08457395325577939"/><circle cx="1249.0" cy="368.7" r="13.6" fill="#FFFFFF" fill-opacity="0.08935162115749853"/><circle cx="2175.0" cy="52.3" r="15.3" fill="#4A90E2" fill-opacity="0.12223771764931991"/><circle cx="1088.5" cy="375.3" r="15.1" fill="#FFFFFF" fill-opacity="0.08768027689308902"/><circle cx="2110.4" cy="478.1" r="15.4" fill="#FFFFFF" fill-opacity="0.09637077326064356"/><circle cx="491.7" cy="433.2" r="14.2" fill="#FFFFFF" fill-opacity="0.11416163066344741"/><circle cx="511.9" cy="540.0" r="15.8" fill="#FFFFFF" fill-opacity="0.1477358522339594"/><circle cx="1897.9" cy="192.2" r="15.1" fill="#4A90E2" fill-opacity="0.1355783462641001"/><circle cx="198.7" cy="264.5" r="11.5" fill="#4A90E2" fill-opacity="0.12682334950212892"/><circle cx="68.2" cy="485.5" r="6.6" fill="#4A90E2" fill-opacity="0.1299859866761448"/><circle cx="804.0" cy="472.7" r="7.4" fill="#FFFFFF" fill-opacity="0.06486755534993402"/><circle cx="1736.6" cy="504.0" r="12.9" fill="#4A90E2" fill-opacity="0.1445747396945497"/><circle cx="2278.0" cy="51.6" r="8.2" fill="#4A90E2" fill-opacity="0.10266634043959898"/><circle cx="1749.2" cy="383.3" r="11.2" fill="#FFFFFF" fill-opacity="0.13436233990431729"/><circle cx="748.1" cy="228.7" r="14.5" fill="#4A90E2" fill-opacity="0.14005250380146095"/><circle cx="2041.9" cy="581.1" r="11.2" fill="#4A90E2" fill-opacity="0.10729890800837248"/><circle cx="1286.2" cy="301.9" r="12.1" fill="#FFFFFF" fill-opacity="0.05277555177980761"/><circle cx="1238.4" cy="240.4" r="14.0" fill="#4A90E2" fill-opacity="0.10628666886831145"/><circle cx="1658.4" cy="39.5" r="11.4" fill="#FFFFFF" fill-opacity="0.09137740874348801"/><circle cx="2216.2" cy="161.5" r="10.7" fill="#4A90E2" fill-opacity="0.06269675891077578"/><circle cx="1957.7" cy="540.3" r="10.8" fill="#4A90E2" fill-opacity="0.08172146462545815"/><circle cx="1482.9" cy="555.2" r="7.3" fill="#4A90E2" fill-opacity="0.12792888431048416"/><circle cx="465.9" cy="136.4" r="12.9" fill="#4A90E2" fill-opacity="0.08220822492510287"/><circle cx="1487.4" cy="62.9" r="13.3" fill="#FFFFFF" fill-opacity="0.062278334686099494"/><circle cx="601.3" cy="118.6" r="11.3" fill="#4A90E2" fill-opacity="0.09367760123554617"/><circle cx="992.2" cy="317.6" r="7.6" fill="#FFFFFF" fill-opacity="0.07042662416684556"/><circle cx="1532.3" cy="317.8" r="14.5" fill="#FFFFFF" fill-opacity="0.11117111413675893"/><circle cx="558.4" cy="444.5" r="14.1" fill="#4A90E2" fill-opacity="0.14026775299097222"/><circle cx="756.0" cy="553.7" r="8.2" fill="#FFFFFF" fill-opacity="0.14983538254688822"/><circle cx="321.4" cy="143.6" r="13.3" fill="#4A90E2" fill-opacity="0.07594975112967114"/><circle cx="1997.2" cy="253.0" r="13.9" fill="#4A90E2" fill-opacity="0.06260032743263678"/><circle cx="1644.5" cy="10.7" r="8.0" fill="#FFFFFF" fill-opacity="0.11823831376253634"/><circle cx="2324.1" cy="69.2" r="11.1" fill="#FFFFFF" fill-opacity="0.12581544320545857"/><circle cx="1645.6" cy="113.4" r="6.7" fill="#4A90E2" fill-opacity="0.060617332178581285"/><circle cx="1324.0" cy="308.9" r="11.7" fill="#4A90E2" fill-opacity="0.06465548216519588"/><circle cx="489.4" cy="504.1" r="15.9" fill="#4A90E2" fill-opacity="0.14268923153947133"/></g>
</svg>